<svg width="148" height="42" viewBox="0 0 148 42" fill="none" xmlns="http://www.w3.org/2000/svg">
<path d="M71.92 31H63.94V16.72H71.92V18.3H65.74V22.76H71.56V24.32H65.74V29.42H71.92V31ZM78.8733 20.1C80.1799 20.1 81.1466 20.3867 81.7733 20.96C82.3999 21.5333 82.7133 22.4467 82.7133 23.7V31H81.4333L81.0933 29.48H81.0133C80.5466 30.0667 80.0533 30.5 79.5333 30.78C79.0266 31.06 78.3199 31.2 77.4133 31.2C76.4399 31.2 75.6333 30.9467 74.9933 30.44C74.3533 29.92 74.0333 29.1133 74.0333 28.02C74.0333 26.9533 74.4533 26.1333 75.2933 25.56C76.1333 24.9733 77.4266 24.6533 79.1733 24.6L80.9933 24.54V23.9C80.9933 23.0067 80.7999 22.3867 80.4133 22.04C80.0266 21.6933 79.4799 21.52 78.7733 21.52C78.2133 21.52 77.6799 21.6067 77.1733 21.78C76.6666 21.94 76.1933 22.1267 75.7533 22.34L75.2133 21.02C75.6799 20.7667 76.2333 20.5533 76.8733 20.38C77.5133 20.1933 78.1799 20.1 78.8733 20.1ZM79.3933 25.82C78.0599 25.8733 77.1333 26.0867 76.6133 26.46C76.1066 26.8333 75.8533 27.36 75.8533 28.04C75.8533 28.64 76.0333 29.08 76.3933 29.36C76.7666 29.64 77.2399 29.78 77.8133 29.78C78.7199 29.78 79.4733 29.5333 80.0733 29.04C80.6733 28.5333 80.9733 27.76 80.9733 26.72V25.76L79.3933 25.82ZM93.0042 28.04C93.0042 29.08 92.6176 29.8667 91.8442 30.4C91.0709 30.9333 90.0309 31.2 88.7242 31.2C87.9776 31.2 87.3309 31.14 86.7842 31.02C86.2509 30.9 85.7776 30.7333 85.3642 30.52V28.92C85.7909 29.1333 86.3042 29.3333 86.9042 29.52C87.5176 29.6933 88.1376 29.78 88.7642 29.78C89.6576 29.78 90.3042 29.64 90.7042 29.36C91.1042 29.0667 91.3042 28.68 91.3042 28.2C91.3042 27.9333 91.2309 27.6933 91.0842 27.48C90.9376 27.2667 90.6709 27.0533 90.2842 26.84C89.9109 26.6267 89.3709 26.3867 88.6642 26.12C87.9709 25.8533 87.3776 25.5867 86.8842 25.32C86.3909 25.0533 86.0109 24.7333 85.7442 24.36C85.4776 23.9867 85.3442 23.5067 85.3442 22.92C85.3442 22.0133 85.7109 21.3133 86.4442 20.82C87.1909 20.3267 88.1642 20.08 89.3642 20.08C90.0176 20.08 90.6242 20.1467 91.1842 20.28C91.7576 20.4 92.2909 20.5733 92.7842 20.8L92.1842 22.2C91.7309 22.0133 91.2576 21.8533 90.7642 21.72C90.2709 21.5867 89.7642 21.52 89.2442 21.52C88.5242 21.52 87.9709 21.64 87.5842 21.88C87.2109 22.1067 87.0242 22.42 87.0242 22.82C87.0242 23.1133 87.1109 23.3667 87.2842 23.58C87.4576 23.78 87.7442 23.98 88.1442 24.18C88.5576 24.3667 89.1042 24.5933 89.7842 24.86C90.4642 25.1133 91.0442 25.3733 91.5242 25.64C92.0042 25.9067 92.3709 26.2333 92.6242 26.62C92.8776 26.9933 93.0042 27.4667 93.0042 28.04ZM93.9145 20.28H95.7945L98.1145 26.38C98.3145 26.9133 98.4945 27.4267 98.6545 27.92C98.8145 28.4 98.9345 28.86 99.0145 29.3H99.0945C99.1745 28.9667 99.3012 28.5333 99.4745 28C99.6479 27.4533 99.8279 26.9067 100.015 26.36L102.195 20.28H104.095L99.4745 32.48C99.1012 33.4933 98.6145 34.3 98.0145 34.9C97.4279 35.5 96.6145 35.8 95.5745 35.8C95.2545 35.8 94.9745 35.78 94.7345 35.74C94.4945 35.7133 94.2879 35.68 94.1145 35.64V34.24C94.2612 34.2667 94.4345 34.2933 94.6345 34.32C94.8479 34.3467 95.0679 34.36 95.2945 34.36C95.9079 34.36 96.4012 34.1867 96.7745 33.84C97.1612 33.4933 97.4612 33.0333 97.6745 32.46L98.2345 31.04L93.9145 20.28ZM109.97 16.72C111.743 16.72 113.05 17.06 113.89 17.74C114.743 18.4067 115.17 19.42 115.17 20.78C115.17 21.54 115.03 22.1733 114.75 22.68C114.47 23.1867 114.11 23.5933 113.67 23.9C113.243 24.1933 112.79 24.4267 112.31 24.6L116.23 31H114.13L110.67 25.1H107.83V31H106.03V16.72H109.97ZM109.87 18.28H107.83V23.58H109.97C111.13 23.58 111.977 23.3533 112.51 22.9C113.043 22.4333 113.31 21.7533 113.31 20.86C113.31 19.9267 113.03 19.2667 112.47 18.88C111.91 18.48 111.043 18.28 109.87 18.28ZM122.371 20.08C123.291 20.08 124.078 20.28 124.731 20.68C125.398 21.08 125.905 21.6467 126.251 22.38C126.611 23.1 126.791 23.9467 126.791 24.92V25.98H119.451C119.478 27.1933 119.785 28.12 120.371 28.76C120.971 29.3867 121.805 29.7 122.871 29.7C123.551 29.7 124.151 29.64 124.671 29.52C125.205 29.3867 125.751 29.2 126.311 28.96V30.5C125.765 30.74 125.225 30.9133 124.691 31.02C124.158 31.14 123.525 31.2 122.791 31.2C121.778 31.2 120.878 30.9933 120.091 30.58C119.318 30.1667 118.711 29.5533 118.271 28.74C117.845 27.9133 117.631 26.9067 117.631 25.72C117.631 24.5467 117.825 23.54 118.211 22.7C118.611 21.86 119.165 21.2133 119.871 20.76C120.591 20.3067 121.425 20.08 122.371 20.08ZM122.351 21.52C121.511 21.52 120.845 21.7933 120.351 22.34C119.871 22.8733 119.585 23.62 119.491 24.58H124.951C124.938 23.6733 124.725 22.94 124.311 22.38C123.898 21.8067 123.245 21.52 122.351 21.52ZM134.68 20.08C135.96 20.08 136.927 20.3933 137.58 21.02C138.234 21.6333 138.56 22.6333 138.56 24.02V31H136.82V24.14C136.82 22.42 136.02 21.56 134.42 21.56C133.234 21.56 132.414 21.8933 131.96 22.56C131.507 23.2267 131.28 24.1867 131.28 25.44V31H129.52V20.28H130.94L131.2 21.74H131.3C131.647 21.18 132.127 20.7667 132.74 20.5C133.354 20.22 134 20.08 134.68 20.08ZM145.464 29.76C145.73 29.76 146.004 29.74 146.284 29.7C146.564 29.6467 146.79 29.5933 146.964 29.54V30.88C146.777 30.9733 146.51 31.0467 146.164 31.1C145.817 31.1667 145.484 31.2 145.164 31.2C144.604 31.2 144.084 31.1067 143.604 30.92C143.137 30.72 142.757 30.38 142.464 29.9C142.17 29.42 142.024 28.7467 142.024 27.88V21.64H140.504V20.8L142.044 20.1L142.744 17.82H143.784V20.28H146.884V21.64H143.784V27.84C143.784 28.4933 143.937 28.98 144.244 29.3C144.564 29.6067 144.97 29.76 145.464 29.76Z" fill="white"/>
<path d="M27.5 37.0588H22.5V32.1176H27.5V37.0588ZM32.5 27.1765H17.5V42H32.5V27.1765ZM42.5 15.5647V2.47059H35V8.89412L25 0L0 22.2353H7.5L25 6.64588L42.5 22.2353H50L42.5 15.5647Z" fill="white"/>
</svg>
